# xmcd CD database file
#
# Track frame offsets:
#	150
#	32199
#	33916
#	51896
#	53093
#	65620
#	68308
#	88361
#	92667
#	114452
#	118026
#	162435
#	166926
#	188536
#	199906
#	225737
#
# Disc length: 3110 seconds
#
# Revision: 0
# Processed by: cddbd v1.5.1PL2 Copyright (c) Steve Scherf et al.
# Submitted via: Feurio! 1.68 - http://www.feurio.com
#
DISCID=d40c2410
DTITLE=Diana Krall - Live In Paris  -  CD 2
DYEAR=1900
DGENRE=Blues
TTITLE0=East Of The Sun
TTITLE1=Applause
TTITLE2=I Get Along
TTITLE3=Applause
TTITLE4=Pick Yourself Up
TTITLE5=Applause
TTITLE6=S' Wonderful
TTITLE7=Applause
TTITLE8=Love Letters
TTITLE9=Applause
TTITLE10=I Don't Know Enough About You
TTITLE11=Applause
TTITLE12=Do It Again
TTITLE13=Applause
TTITLE14=A Case Of You
TTITLE15=Applause
EXTD=
EXTT0=
EXTT1=
EXTT2=
EXTT3=
EXTT4=
EXTT5=
EXTT6=
EXTT7=
EXTT8=
EXTT9=
EXTT10=
EXTT11=
EXTT12=
EXTT13=
EXTT14=
EXTT15=
PLAYORDER=
